<svg width="18" height="19" viewBox="0 0 18 19" fill="none" xmlns="http://www.w3.org/2000/svg">
<g clip-path="url(#clip0_78_4)">
<path d="M16.1519 13.9538L13.6782 12.0073C13.1712 11.6018 12.4413 11.6829 12.0155 12.1695C11.5694 12.6764 11.2856 13.0211 11.1842 13.1022C10.4339 13.8525 8.87268 12.7575 7.21002 11.0949C5.54737 9.43223 4.47272 7.89124 5.22294 7.14101C5.30405 7.05991 5.64875 6.75576 6.15565 6.30969C6.64228 5.88388 6.72339 5.15394 6.31786 4.64703L4.37134 2.17332C4.02664 1.74752 3.43863 1.60559 2.952 1.80835C2.28288 2.09222 1.08658 3.08576 0.762163 3.41018C-1.02215 5.21477 1.20824 9.31058 5.10129 13.2239C8.99433 17.1372 13.1104 19.3676 14.8947 17.563C15.2192 17.2386 16.2127 16.0423 16.4966 15.3732C16.7196 14.8663 16.5777 14.2985 16.1519 13.9538Z" fill="white"/>
<path d="M11.0399 5.77004L11.0466 5.77188C11.3919 5.8541 11.7215 6.03522 11.9852 6.2989C12.2488 6.56256 12.4299 6.89204 12.5122 7.23732C12.5914 7.57405 12.8704 7.81296 13.2258 7.83308C13.7636 7.87232 14.1563 7.37472 14.0393 6.86429C13.9138 6.25607 13.5923 5.66836 13.1127 5.18869C12.6324 4.70845 12.0448 4.38768 11.4209 4.24504C10.91 4.12721 10.4116 4.52021 10.451 5.05843C10.4715 5.40101 10.7312 5.67356 11.0399 5.77004Z" fill="white" stroke="white" stroke-width="0.2"/>
<path d="M17.6059 6.46532C17.4829 5.05926 16.8852 3.66979 15.8123 2.59693C14.7395 1.52407 13.3504 0.926453 11.9444 0.803423C11.4714 0.764004 11.053 1.15705 11.092 1.63642C11.1126 2.0145 11.4107 2.32986 11.8046 2.36924L11.8066 2.36943C12.8732 2.45408 13.9057 2.9111 14.7014 3.7237L14.7021 3.72445C15.5137 4.53604 15.9543 5.56737 16.0568 6.61706C16.0596 7.00402 16.3846 7.29711 16.773 7.31732C17.2523 7.35622 17.6453 6.93831 17.6059 6.46532Z" fill="white" stroke="white" stroke-width="0.2"/>
</g>
<defs>
<clipPath id="clip0_78_4">
<rect width="18" height="19" fill="white"/>
</clipPath>
</defs>
</svg>
