<svg width="18" height="19" viewBox="0 0 18 19" fill="none" xmlns="http://www.w3.org/2000/svg">
<path d="M16.1519 13.9538L13.6782 12.0073C13.1712 11.6018 12.4413 11.6829 12.0155 12.1695C11.5694 12.6764 11.2856 13.0211 11.1842 13.1022C10.4339 13.8525 8.87268 12.7575 7.21002 11.0949C5.54737 9.43223 4.47272 7.89124 5.22294 7.14101C5.30405 7.05991 5.64875 6.75576 6.15565 6.30969C6.64228 5.88388 6.72339 5.15394 6.31786 4.64703L4.37134 2.17332C4.02664 1.74752 3.43863 1.60559 2.952 1.80835C2.28288 2.09222 1.08658 3.08576 0.762163 3.41018C-1.02215 5.21477 1.20824 9.31058 5.10129 13.2239C8.99433 17.1372 13.1104 19.3676 14.8947 17.563C15.2192 17.2386 16.2127 16.0423 16.4966 15.3732C16.7196 14.8663 16.5777 14.2985 16.1519 13.9538Z" fill="#EA1C1C"/>
<path d="M11.0399 5.77002L11.0399 5.77025L11.0466 5.77186C11.3919 5.85408 11.7215 6.0352 11.9852 6.29888C12.2488 6.56254 12.4299 6.89202 12.5122 7.2373C12.5914 7.57403 12.8704 7.81294 13.2258 7.83306C13.7636 7.8723 14.1563 7.3747 14.0393 6.86427C13.9138 6.25605 13.5923 5.66834 13.1127 5.18867C12.6324 4.70843 12.0448 4.38766 11.4209 4.24502C10.91 4.12719 10.4116 4.52019 10.451 5.05841C10.4715 5.40099 10.7312 5.67354 11.0399 5.77002Z" fill="#EA1C1C" stroke="#EA1C1C" stroke-width="0.2"/>
<path d="M17.6059 6.4653L17.6058 6.46489C17.4828 5.05883 16.8852 3.66977 15.8123 2.59691C14.7395 1.52405 13.3504 0.926435 11.9444 0.803405L11.9444 0.803404L11.9439 0.803369C11.4709 0.76395 11.053 1.15703 11.092 1.6364C11.1126 2.01448 11.4107 2.32984 11.8046 2.36922L11.8046 2.36924L11.8066 2.36941C12.8732 2.45406 13.9057 2.91108 14.7014 3.72368L14.7014 3.72368L14.7021 3.72443C15.5137 4.53602 15.9543 5.56735 16.0568 6.61704C16.0596 7.004 16.3846 7.29709 16.773 7.3173C17.2523 7.3562 17.6453 6.93829 17.6059 6.4653Z" fill="#EA1C1C" stroke="#EA1C1C" stroke-width="0.2"/>
</svg>
