<svg width="79" height="18" viewBox="0 0 79 18" fill="none" xmlns="http://www.w3.org/2000/svg">
<path d="M74.6123 13.9605C73.8258 13.9605 73.0686 13.8607 72.3408 13.6612C71.6247 13.4499 71.0554 13.1975 70.6328 12.904L71.478 11.2312C71.9006 11.5012 72.4054 11.7243 72.9923 11.9004C73.5792 12.0764 74.1662 12.1645 74.7531 12.1645C75.4457 12.1645 75.9446 12.0706 76.2498 11.8828C76.5668 11.6949 76.7252 11.4425 76.7252 11.1256C76.7252 10.8673 76.6196 10.6737 76.4083 10.5445C76.197 10.4037 75.9211 10.298 75.5807 10.2276C75.2403 10.1572 74.8588 10.0926 74.4362 10.0339C74.0253 9.9752 73.6086 9.8989 73.186 9.80499C72.7751 9.69934 72.3995 9.55261 72.0591 9.36479C71.7186 9.16523 71.4428 8.90111 71.2315 8.57242C71.0202 8.24373 70.9145 7.8094 70.9145 7.26942C70.9145 6.67074 71.0848 6.15423 71.4252 5.7199C71.7656 5.27383 72.241 4.9334 72.8514 4.69863C73.4736 4.45211 74.2073 4.32886 75.0525 4.32886C75.6864 4.32886 76.3261 4.39929 76.9717 4.54016C77.6174 4.68102 78.1515 4.88058 78.5741 5.13883L77.7289 6.81161C77.2828 6.54161 76.8309 6.35966 76.3731 6.26575C75.927 6.1601 75.4809 6.10728 75.0349 6.10728C74.3657 6.10728 73.8668 6.20706 73.5382 6.40662C73.2212 6.60618 73.0627 6.85856 73.0627 7.16377C73.0627 7.4455 73.1684 7.6568 73.3797 7.79766C73.591 7.93853 73.8668 8.05004 74.2073 8.13222C74.5477 8.21439 74.9233 8.28482 75.3342 8.34351C75.7568 8.39047 76.1735 8.46677 76.5844 8.57242C76.9952 8.67807 77.3709 8.8248 77.7113 9.01262C78.0634 9.18871 78.3452 9.44109 78.5565 9.76977C78.7678 10.0985 78.8734 10.5269 78.8734 11.0552C78.8734 11.6421 78.6973 12.1527 78.3452 12.5871C78.0048 13.0214 77.5176 13.3618 76.8837 13.6083C76.2498 13.8431 75.4927 13.9605 74.6123 13.9605Z" fill="#EA1C1C"/>
<path d="M65.7919 13.9605C64.8058 13.9605 63.9254 13.7551 63.1507 13.3442C62.3876 12.9216 61.789 12.3464 61.3546 11.6186C60.9203 10.8908 60.7031 10.0632 60.7031 9.13588C60.7031 8.19678 60.9203 7.3692 61.3546 6.65313C61.789 5.92533 62.3876 5.356 63.1507 4.94514C63.9254 4.53429 64.8058 4.32886 65.7919 4.32886C66.7075 4.32886 67.5116 4.51668 68.2042 4.89232C68.9085 5.25622 69.4426 5.7962 69.8065 6.51227L68.1162 7.49832C67.8344 7.05225 67.4881 6.72356 67.0773 6.51227C66.6782 6.30097 66.2438 6.19532 65.7743 6.19532C65.2343 6.19532 64.7471 6.31271 64.3128 6.54748C63.8785 6.78226 63.538 7.12268 63.2915 7.56876C63.045 8.00309 62.9218 8.52547 62.9218 9.13588C62.9218 9.7463 63.045 10.2745 63.2915 10.7206C63.538 11.1549 63.8785 11.4895 64.3128 11.7243C64.7471 11.9591 65.2343 12.0764 65.7743 12.0764C66.2438 12.0764 66.6782 11.9708 67.0773 11.7595C67.4881 11.5482 67.8344 11.2195 68.1162 10.7734L69.8065 11.7595C69.4426 12.4638 68.9085 13.0097 68.2042 13.3971C67.5116 13.7727 66.7075 13.9605 65.7919 13.9605Z" fill="#EA1C1C"/>
<path d="M56.3853 13.8373V4.43451H58.5863V13.8373H56.3853ZM57.4946 2.885C57.0837 2.885 56.7433 2.75587 56.4733 2.49762C56.2151 2.23936 56.0859 1.92829 56.0859 1.56438C56.0859 1.18874 56.2151 0.877667 56.4733 0.631153C56.7433 0.3729 57.0837 0.243774 57.4946 0.243774C57.9054 0.243774 58.24 0.367031 58.4983 0.613545C58.7682 0.848321 58.9032 1.14766 58.9032 1.51156C58.9032 1.89894 58.7741 2.22762 58.5159 2.49762C58.2576 2.75587 57.9172 2.885 57.4946 2.885Z" fill="#EA1C1C"/>
<path d="M52.4632 13.9607C51.4302 13.9607 50.632 13.6966 50.0685 13.1683C49.5051 12.6284 49.2233 11.836 49.2233 10.7912V2.35693H51.4244V10.7384C51.4244 11.1845 51.5359 11.5308 51.7589 11.7773C51.9937 12.0238 52.3165 12.1471 52.7274 12.1471C53.2204 12.1471 53.6313 12.0179 53.9599 11.7597L54.5762 13.3268C54.318 13.5381 54.001 13.6966 53.6254 13.8022C53.2497 13.9079 52.8624 13.9607 52.4632 13.9607ZM47.6738 6.26594V4.50513H53.9423V6.26594H47.6738Z" fill="#EA1C1C"/>
<path d="M42.7666 13.9605C41.9801 13.9605 41.2229 13.8607 40.4951 13.6612C39.779 13.4499 39.2097 13.1975 38.7871 12.904L39.6323 11.2312C40.0549 11.5012 40.5597 11.7243 41.1466 11.9004C41.7335 12.0764 42.3205 12.1645 42.9074 12.1645C43.6 12.1645 44.0989 12.0706 44.4041 11.8828C44.7211 11.6949 44.8795 11.4425 44.8795 11.1256C44.8795 10.8673 44.7739 10.6737 44.5626 10.5445C44.3513 10.4037 44.0754 10.298 43.735 10.2276C43.3946 10.1572 43.0131 10.0926 42.5905 10.0339C42.1796 9.9752 41.7629 9.8989 41.3403 9.80499C40.9294 9.69934 40.5538 9.55261 40.2134 9.36479C39.8729 9.16523 39.5971 8.90111 39.3858 8.57242C39.1745 8.24373 39.0688 7.8094 39.0688 7.26942C39.0688 6.67074 39.2391 6.15423 39.5795 5.7199C39.9199 5.27383 40.3953 4.9334 41.0057 4.69863C41.6279 4.45211 42.3616 4.32886 43.2068 4.32886C43.8406 4.32886 44.4804 4.39929 45.126 4.54016C45.7717 4.68102 46.3058 4.88058 46.7284 5.13883L45.8832 6.81161C45.4371 6.54161 44.9852 6.35966 44.5274 6.26575C44.0813 6.1601 43.6352 6.10728 43.1891 6.10728C42.52 6.10728 42.0211 6.20706 41.6925 6.40662C41.3755 6.60618 41.217 6.85856 41.217 7.16377C41.217 7.4455 41.3227 7.6568 41.534 7.79766C41.7453 7.93853 42.0211 8.05004 42.3616 8.13222C42.702 8.21439 43.0776 8.28482 43.4885 8.34351C43.9111 8.39047 44.3278 8.46677 44.7387 8.57242C45.1495 8.67807 45.5252 8.8248 45.8656 9.01262C46.2177 9.18871 46.4995 9.44109 46.7108 9.76977C46.9221 10.0985 47.0277 10.5269 47.0277 11.0552C47.0277 11.6421 46.8516 12.1527 46.4995 12.5871C46.1591 13.0214 45.6719 13.3618 45.038 13.6083C44.4041 13.8431 43.647 13.9605 42.7666 13.9605Z" fill="#EA1C1C"/>
<path d="M34.77 13.8373V4.43451H36.9711V13.8373H34.77ZM35.8794 2.885C35.4685 2.885 35.1281 2.75587 34.8581 2.49762C34.5998 2.23936 34.4707 1.92829 34.4707 1.56438C34.4707 1.18874 34.5998 0.877667 34.8581 0.631153C35.1281 0.3729 35.4685 0.243774 35.8794 0.243774C36.2902 0.243774 36.6248 0.367031 36.883 0.613545C37.153 0.848321 37.288 1.14766 37.288 1.51156C37.288 1.89894 37.1589 2.22762 36.9006 2.49762C36.6424 2.75587 36.302 2.885 35.8794 2.885Z" fill="#EA1C1C"/>
<path d="M26.8074 17.3765C25.9387 17.3765 25.0877 17.2591 24.2542 17.0243C23.4325 16.8013 22.7575 16.4726 22.2293 16.0383L23.2154 14.3831C23.6262 14.7235 24.1427 14.9935 24.7649 15.1931C25.3988 15.4044 26.0385 15.51 26.6842 15.51C27.7172 15.51 28.4743 15.2694 28.9556 14.7881C29.4369 14.3185 29.6775 13.6083 29.6775 12.6575V10.9847L29.8536 8.85415L29.7832 6.72356V4.43451H31.8786V12.411C31.8786 14.1131 31.4442 15.3633 30.5756 16.1615C29.7069 16.9715 28.4508 17.3765 26.8074 17.3765ZM26.5257 13.4147C25.6335 13.4147 24.8236 13.2268 24.0958 12.8512C23.3797 12.4638 22.8104 11.9297 22.3878 11.2489C21.9769 10.568 21.7715 9.76977 21.7715 8.85415C21.7715 7.95027 21.9769 7.1579 22.3878 6.47705C22.8104 5.7962 23.3797 5.26796 24.0958 4.89232C24.8236 4.51668 25.6335 4.32886 26.5257 4.32886C27.3239 4.32886 28.04 4.48733 28.6739 4.80428C29.3078 5.12122 29.8125 5.61425 30.1882 6.28336C30.5756 6.95247 30.7692 7.8094 30.7692 8.85415C30.7692 9.8989 30.5756 10.7617 30.1882 11.4425C29.8125 12.1117 29.3078 12.6106 28.6739 12.9392C28.04 13.2562 27.3239 13.4147 26.5257 13.4147ZM26.8602 11.5482C27.412 11.5482 27.905 11.4367 28.3393 11.2136C28.7737 10.9789 29.1082 10.6619 29.343 10.2628C29.5895 9.85194 29.7128 9.38239 29.7128 8.85415C29.7128 8.32591 29.5895 7.86222 29.343 7.46311C29.1082 7.05225 28.7737 6.74117 28.3393 6.52988C27.905 6.30684 27.412 6.19532 26.8602 6.19532C26.3085 6.19532 25.8096 6.30684 25.3635 6.52988C24.9292 6.74117 24.5888 7.05225 24.3423 7.46311C24.1075 7.86222 23.9901 8.32591 23.9901 8.85415C23.9901 9.38239 24.1075 9.85194 24.3423 10.2628C24.5888 10.6619 24.9292 10.9789 25.3635 11.2136C25.8096 11.4367 26.3085 11.5482 26.8602 11.5482Z" fill="#EA1C1C"/>
<path d="M15.4226 13.9605C14.46 13.9605 13.6031 13.7551 12.8518 13.3442C12.1005 12.9216 11.5077 12.3464 11.0734 11.6186C10.639 10.8908 10.4219 10.0632 10.4219 9.13588C10.4219 8.19678 10.639 7.3692 11.0734 6.65313C11.5077 5.92533 12.1005 5.356 12.8518 4.94514C13.6031 4.53429 14.46 4.32886 15.4226 4.32886C16.3969 4.32886 17.2597 4.53429 18.011 4.94514C18.774 5.356 19.3668 5.91946 19.7894 6.63552C20.2237 7.35159 20.4409 8.18504 20.4409 9.13588C20.4409 10.0632 20.2237 10.8908 19.7894 11.6186C19.3668 12.3464 18.774 12.9216 18.011 13.3442C17.2597 13.7551 16.3969 13.9605 15.4226 13.9605ZM15.4226 12.0764C15.9626 12.0764 16.4439 11.9591 16.8665 11.7243C17.2891 11.4895 17.6177 11.1491 17.8525 10.703C18.099 10.2569 18.2223 9.73456 18.2223 9.13588C18.2223 8.52547 18.099 8.00309 17.8525 7.56876C17.6177 7.12268 17.2891 6.78226 16.8665 6.54748C16.4439 6.31271 15.9684 6.19532 15.4402 6.19532C14.9002 6.19532 14.4189 6.31271 13.9963 6.54748C13.5855 6.78226 13.2568 7.12268 13.0103 7.56876C12.7638 8.00309 12.6405 8.52547 12.6405 9.13588C12.6405 9.73456 12.7638 10.2569 13.0103 10.703C13.2568 11.1491 13.5855 11.4895 13.9963 11.7243C14.4189 11.9591 14.8943 12.0764 15.4226 12.0764Z" fill="#EA1C1C"/>
<path d="M0.953125 13.8373V1.5116H3.24218V11.9004H9.68676V13.8373H0.953125Z" fill="#EA1C1C"/>
</svg>
