<svg width="30" height="29" viewBox="0 0 30 29" fill="none" xmlns="http://www.w3.org/2000/svg">
<path d="M11.5742 5.25537H14.3451V21.4848H22.5588V24.1567H11.5742V5.25537Z" fill="white"/>
<path d="M29.623 9.79394H26.9526V4.84287C26.9526 3.83685 26.137 3.02132 25.131 3.02132H4.74106C3.73505 3.02132 2.91951 3.83685 2.91951 4.84286V11.5329C2.91951 12.5389 3.73505 13.3544 4.74106 13.3544H11.9755V16.0248H4.9191C2.40407 16.0248 0.365234 13.9859 0.365234 11.4709V4.75004C0.365234 2.235 2.40407 0.196167 4.9191 0.196167H25.0692C27.5842 0.196167 29.623 2.235 29.623 4.75004V9.79394Z" fill="white"/>
<path d="M18.0928 13.3544V16.0247H24.8215C25.8275 16.0247 26.6431 16.8403 26.6431 17.8463V24.4976C26.6431 25.5036 25.8275 26.3191 24.8215 26.3191H4.62496C3.61895 26.3191 2.80341 25.5036 2.80341 24.4976V19.4304H0.365234V24.2808C0.365234 26.7958 2.40407 28.8347 4.9191 28.8347H24.953C27.468 28.8347 29.5069 26.7958 29.5069 24.2808V17.9082C29.5069 15.3932 27.468 13.3544 24.953 13.3544H18.0928Z" fill="white"/>
</svg>
