<svg width="79" height="20" viewBox="0 0 79 20" fill="none" xmlns="http://www.w3.org/2000/svg">
<path d="M73.3158 5.6615C74.3542 5.6615 75.279 5.86431 76.0903 6.26995C76.9178 6.67558 77.5668 7.30025 78.0373 8.14397C78.5079 8.97145 78.7431 10.0423 78.7431 11.3566V18.804H75.7009V11.746C75.7009 10.594 75.4251 9.73404 74.8734 9.16616C74.338 8.59827 73.5835 8.31433 72.61 8.31433C71.8961 8.31433 71.2633 8.46036 70.7116 8.75241C70.16 9.04447 69.73 9.48255 69.4217 10.0667C69.1297 10.6345 68.9836 11.3566 68.9836 12.2327V18.804H65.9414V5.80753H68.8376V9.31218L68.3265 8.24132C68.7808 7.41383 69.4379 6.78104 70.2979 6.34296C71.1741 5.88865 72.18 5.6615 73.3158 5.6615Z" fill="#EA1C1C"/>
<path d="M59.1644 18.804V16.1755L58.9941 15.6157V11.0158C58.9941 10.1234 58.7264 9.43387 58.1909 8.94712C57.6555 8.44413 56.8442 8.19264 55.7571 8.19264C55.027 8.19264 54.305 8.30622 53.5911 8.53337C52.8934 8.76052 52.3011 9.07692 51.8144 9.48255L50.6218 7.2678C51.3195 6.73237 52.147 6.33485 53.1043 6.07524C54.0778 5.79941 55.0838 5.6615 56.1222 5.6615C58.0043 5.6615 59.4565 6.11581 60.4787 7.02442C61.5171 7.91681 62.0363 9.30407 62.0363 11.1862V18.804H59.1644ZM55.0757 18.9743C54.1021 18.9743 53.2503 18.8121 52.5202 18.4876C51.79 18.1468 51.2222 17.6844 50.8165 17.1003C50.4271 16.5 50.2324 15.8266 50.2324 15.0803C50.2324 14.3501 50.4028 13.693 50.7435 13.1089C51.1005 12.5248 51.6765 12.0624 52.4715 11.7216C53.2665 11.3809 54.3212 11.2105 55.6354 11.2105H59.4078V13.2306H55.8545C54.8161 13.2306 54.1184 13.401 53.7614 13.7417C53.4045 14.0662 53.226 14.4718 53.226 14.9586C53.226 15.5102 53.445 15.9483 53.8831 16.2728C54.3212 16.5973 54.9296 16.7596 55.7085 16.7596C56.4548 16.7596 57.12 16.5892 57.7042 16.2485C58.3045 15.9078 58.7345 15.4048 58.9941 14.7395L59.5052 16.5649C59.2131 17.3275 58.6858 17.9197 57.9232 18.3415C57.1768 18.7634 56.2277 18.9743 55.0757 18.9743Z" fill="#EA1C1C"/>
<path d="M45.7332 18.9746C44.3054 18.9746 43.202 18.6095 42.4232 17.8794C41.6444 17.133 41.255 16.0378 41.255 14.5938V2.93591H44.2973V14.5208C44.2973 15.1373 44.4514 15.616 44.7597 15.9567C45.0842 16.2974 45.5304 16.4678 46.0983 16.4678C46.7797 16.4678 47.3476 16.2893 47.8019 15.9324L48.6537 18.0984C48.2968 18.3905 47.8587 18.6095 47.3395 18.7555C46.8203 18.9016 46.2848 18.9746 45.7332 18.9746ZM39.1133 8.33893V5.90514H47.7776V8.33893H39.1133Z" fill="#EA1C1C"/>
<path d="M33.168 18.8041V0.745361H36.2102V18.8041H33.168Z" fill="#EA1C1C"/>
<path d="M22.1036 18.9744C21.0003 18.9744 20.0267 18.7716 19.183 18.366C18.3393 17.9441 17.6822 17.3113 17.2117 16.4676C16.7411 15.6077 16.5059 14.5287 16.5059 13.2307V5.80762H19.5481V12.8169C19.5481 13.9852 19.8077 14.8613 20.3269 15.4454C20.8623 16.0133 21.6168 16.2973 22.5903 16.2973C23.3042 16.2973 23.9208 16.1512 24.44 15.8592C24.9754 15.5671 25.3892 15.129 25.6812 14.5449C25.9895 13.9608 26.1437 13.2388 26.1437 12.3789V5.80762H29.1859V18.8041H26.2897V15.2994L26.8008 16.3703C26.3627 17.214 25.7218 17.863 24.8781 18.3173C24.0344 18.7554 23.1095 18.9744 22.1036 18.9744Z" fill="#EA1C1C"/>
<path d="M6.86765 19.0476C5.53718 19.0476 4.2635 18.861 3.0466 18.4878C1.82971 18.0984 0.864302 17.6035 0.150391 17.0032L1.2456 14.5451C1.92706 15.0805 2.77077 15.5267 3.77674 15.8837C4.7827 16.2406 5.81301 16.4191 6.86765 16.4191C7.76004 16.4191 8.48207 16.3217 9.03372 16.127C9.58538 15.9323 9.99102 15.6727 10.2506 15.3482C10.5102 15.0075 10.64 14.6262 10.64 14.2043C10.64 13.6851 10.4534 13.2714 10.0803 12.9631C9.70707 12.6386 9.22031 12.3871 8.61998 12.2086C8.03587 12.0139 7.37875 11.8355 6.64861 11.6732C5.9347 11.5109 5.21267 11.3244 4.48254 11.1134C3.76863 10.8863 3.1115 10.6023 2.51117 10.2616C1.92706 9.90464 1.44841 9.43411 1.07523 8.85C0.70205 8.26589 0.515459 7.51953 0.515459 6.61091C0.515459 5.68607 0.758838 4.84236 1.2456 4.07977C1.74858 3.30096 2.50305 2.6844 3.50902 2.23009C4.53121 1.75956 5.82112 1.52429 7.37875 1.52429C8.40094 1.52429 9.41502 1.65409 10.421 1.9137C11.427 2.1733 12.3031 2.54648 13.0495 3.03324L12.0516 5.49137C11.289 5.03706 10.5021 4.70444 9.69085 4.49352C8.87958 4.26636 8.10077 4.15278 7.35441 4.15278C6.47824 4.15278 5.76433 4.25825 5.21267 4.46918C4.67724 4.68011 4.27972 4.95594 4.02012 5.29667C3.77674 5.6374 3.65505 6.0268 3.65505 6.46489C3.65505 6.98409 3.83353 7.40595 4.19048 7.73046C4.56366 8.03874 5.04231 8.28212 5.62642 8.46059C6.22675 8.63907 6.89199 8.81755 7.62213 8.99603C8.35226 9.15828 9.07429 9.34487 9.7882 9.5558C10.5183 9.76673 11.1755 10.0426 11.7596 10.3833C12.3599 10.724 12.8385 11.1864 13.1955 11.7705C13.5687 12.3547 13.7553 13.0929 13.7553 13.9853C13.7553 14.8939 13.5038 15.7376 13.0008 16.5164C12.514 17.279 11.7596 17.8956 10.7374 18.3661C9.71519 18.8204 8.42528 19.0476 6.86765 19.0476Z" fill="#EA1C1C"/>
</svg>
